<mxfile host="app.diagrams.net" modified="2023-05-21T16:55:45.851Z" agent="Mozilla/5.0 (Windows NT 10.0; Win64; x64) AppleWebKit/537.36 (KHTML, like Gecko) Chrome/113.0.0.0 Safari/537.36" etag="QoG-Dn4li3J62PEFig4o" version="21.1.7" type="device">
  <diagram name="Page-1" id="5f0bae14-7c28-e335-631c-24af17079c00">
    <mxGraphModel dx="1434" dy="756" grid="1" gridSize="10" guides="1" tooltips="1" connect="1" arrows="1" fold="1" page="1" pageScale="1" pageWidth="1100" pageHeight="850" background="none" math="0" shadow="0">
      <root>
        <mxCell id="0" />
        <mxCell id="1" parent="0" />
        <mxCell id="39150e848f15840c-5" value="&amp;lt;&amp;lt;web service&amp;gt;&amp;gt;&lt;br&gt;Web API (app.js)" style="shape=component;align=center;spacingLeft=36;rounded=0;shadow=0;comic=0;labelBackgroundColor=none;strokeWidth=1;fontFamily=Verdana;fontSize=12;html=1;" parent="1" vertex="1">
          <mxGeometry x="350" y="350" width="170" height="50" as="geometry" />
        </mxCell>
        <mxCell id="39150e848f15840c-7" value="&amp;lt;&amp;lt;datastore&amp;gt;&amp;gt;&lt;br&gt;PostgreSQL&amp;nbsp;" style="shape=component;align=center;spacingLeft=36;rounded=0;shadow=0;comic=0;labelBackgroundColor=none;strokeWidth=1;fontFamily=Verdana;fontSize=12;html=1;" parent="1" vertex="1">
          <mxGeometry x="350" y="555" width="170" height="50" as="geometry" />
        </mxCell>
        <mxCell id="IsZbNHaNVH5ZTfnj5ISp-1" value="&amp;lt;&amp;lt;library&amp;gt;&amp;gt;&lt;br&gt;express" style="shape=component;align=center;spacingLeft=36;rounded=0;shadow=0;comic=0;labelBackgroundColor=none;strokeWidth=1;fontFamily=Verdana;fontSize=12;html=1;" vertex="1" parent="1">
          <mxGeometry x="50" y="400" width="170" height="50" as="geometry" />
        </mxCell>
        <mxCell id="IsZbNHaNVH5ZTfnj5ISp-2" value="&amp;lt;&amp;lt;library&amp;gt;&amp;gt;&lt;br&gt;multer" style="shape=component;align=center;spacingLeft=36;rounded=0;shadow=0;comic=0;labelBackgroundColor=none;strokeWidth=1;fontFamily=Verdana;fontSize=12;html=1;" vertex="1" parent="1">
          <mxGeometry x="50" y="300" width="170" height="50" as="geometry" />
        </mxCell>
        <mxCell id="IsZbNHaNVH5ZTfnj5ISp-3" value="&amp;lt;&amp;lt;library&amp;gt;&amp;gt;&lt;br&gt;pg" style="shape=component;align=center;spacingLeft=36;rounded=0;shadow=0;comic=0;labelBackgroundColor=none;strokeWidth=1;fontFamily=Verdana;fontSize=12;html=1;" vertex="1" parent="1">
          <mxGeometry x="50" y="200" width="170" height="50" as="geometry" />
        </mxCell>
        <mxCell id="IsZbNHaNVH5ZTfnj5ISp-5" value="&amp;lt;&amp;lt;library&amp;gt;&amp;gt;&lt;br&gt;body-parser" style="shape=component;align=center;spacingLeft=36;rounded=0;shadow=0;comic=0;labelBackgroundColor=none;strokeWidth=1;fontFamily=Verdana;fontSize=12;html=1;" vertex="1" parent="1">
          <mxGeometry x="50" y="505" width="170" height="50" as="geometry" />
        </mxCell>
        <mxCell id="IsZbNHaNVH5ZTfnj5ISp-6" value="&amp;lt;&amp;lt;application&amp;gt;&amp;gt;&lt;br&gt;AHS Android App" style="shape=component;align=center;spacingLeft=36;rounded=0;shadow=0;comic=0;labelBackgroundColor=none;strokeWidth=1;fontFamily=Verdana;fontSize=12;html=1;" vertex="1" parent="1">
          <mxGeometry x="630" y="350" width="170" height="50" as="geometry" />
        </mxCell>
        <mxCell id="IsZbNHaNVH5ZTfnj5ISp-7" value="&amp;lt;&amp;lt;library&amp;gt;&amp;gt;&lt;br&gt;com.android.material" style="shape=component;align=center;spacingLeft=36;rounded=0;shadow=0;comic=0;labelBackgroundColor=none;strokeWidth=1;fontFamily=Verdana;fontSize=12;html=1;" vertex="1" parent="1">
          <mxGeometry x="950" y="110" width="190" height="50" as="geometry" />
        </mxCell>
        <mxCell id="IsZbNHaNVH5ZTfnj5ISp-8" value="&amp;lt;&amp;lt;library&amp;gt;&amp;gt;&lt;br&gt;androidx.core" style="shape=component;align=center;spacingLeft=36;rounded=0;shadow=0;comic=0;labelBackgroundColor=none;strokeWidth=1;fontFamily=Verdana;fontSize=12;html=1;" vertex="1" parent="1">
          <mxGeometry x="950" y="50" width="190" height="50" as="geometry" />
        </mxCell>
        <mxCell id="IsZbNHaNVH5ZTfnj5ISp-9" value="&amp;lt;&amp;lt;library&amp;gt;&amp;gt;&lt;br&gt;junit" style="shape=component;align=center;spacingLeft=36;rounded=0;shadow=0;comic=0;labelBackgroundColor=none;strokeWidth=1;fontFamily=Verdana;fontSize=12;html=1;" vertex="1" parent="1">
          <mxGeometry x="950" y="170" width="190" height="50" as="geometry" />
        </mxCell>
        <mxCell id="IsZbNHaNVH5ZTfnj5ISp-10" value="&amp;lt;&amp;lt;library&amp;gt;&amp;gt;&lt;br&gt;androidx.test" style="shape=component;align=center;spacingLeft=36;rounded=0;shadow=0;comic=0;labelBackgroundColor=none;strokeWidth=1;fontFamily=Verdana;fontSize=12;html=1;" vertex="1" parent="1">
          <mxGeometry x="950" y="230" width="190" height="50" as="geometry" />
        </mxCell>
        <mxCell id="IsZbNHaNVH5ZTfnj5ISp-11" value="&amp;lt;&amp;lt;library&amp;gt;&amp;gt;&lt;br&gt;androidx.compose" style="shape=component;align=center;spacingLeft=36;rounded=0;shadow=0;comic=0;labelBackgroundColor=none;strokeWidth=1;fontFamily=Verdana;fontSize=12;html=1;" vertex="1" parent="1">
          <mxGeometry x="950" y="290" width="190" height="50" as="geometry" />
        </mxCell>
        <mxCell id="IsZbNHaNVH5ZTfnj5ISp-12" value="&amp;lt;&amp;lt;library&amp;gt;&amp;gt;&lt;br&gt;io.insert-koin" style="shape=component;align=center;spacingLeft=36;rounded=0;shadow=0;comic=0;labelBackgroundColor=none;strokeWidth=1;fontFamily=Verdana;fontSize=12;html=1;" vertex="1" parent="1">
          <mxGeometry x="950" y="350" width="190" height="50" as="geometry" />
        </mxCell>
        <mxCell id="IsZbNHaNVH5ZTfnj5ISp-13" value="&amp;lt;&amp;lt;library&amp;gt;&amp;gt;&lt;br&gt;io.arrow-kt" style="shape=component;align=center;spacingLeft=36;rounded=0;shadow=0;comic=0;labelBackgroundColor=none;strokeWidth=1;fontFamily=Verdana;fontSize=12;html=1;" vertex="1" parent="1">
          <mxGeometry x="950" y="410" width="190" height="50" as="geometry" />
        </mxCell>
        <mxCell id="IsZbNHaNVH5ZTfnj5ISp-14" value="&amp;lt;&amp;lt;library&amp;gt;&amp;gt;&lt;br&gt;com.squareup.retrofit2" style="shape=component;align=center;spacingLeft=36;rounded=0;shadow=0;comic=0;labelBackgroundColor=none;strokeWidth=1;fontFamily=Verdana;fontSize=12;html=1;" vertex="1" parent="1">
          <mxGeometry x="950" y="470" width="190" height="50" as="geometry" />
        </mxCell>
        <mxCell id="IsZbNHaNVH5ZTfnj5ISp-15" value="&amp;lt;&amp;lt;library&amp;gt;&amp;gt;&lt;br&gt;org.jetbrains.kotlinx" style="shape=component;align=center;spacingLeft=36;rounded=0;shadow=0;comic=0;labelBackgroundColor=none;strokeWidth=1;fontFamily=Verdana;fontSize=12;html=1;" vertex="1" parent="1">
          <mxGeometry x="950" y="530" width="190" height="50" as="geometry" />
        </mxCell>
        <mxCell id="IsZbNHaNVH5ZTfnj5ISp-16" value="&amp;lt;&amp;lt;library&amp;gt;&amp;gt;&lt;br&gt;com.squareup.okhttp3" style="shape=component;align=center;spacingLeft=36;rounded=0;shadow=0;comic=0;labelBackgroundColor=none;strokeWidth=1;fontFamily=Verdana;fontSize=12;html=1;" vertex="1" parent="1">
          <mxGeometry x="950" y="590" width="190" height="50" as="geometry" />
        </mxCell>
        <mxCell id="IsZbNHaNVH5ZTfnj5ISp-17" value="&amp;lt;&amp;lt;library&amp;gt;&amp;gt;&lt;br&gt;androidx.navigation" style="shape=component;align=center;spacingLeft=36;rounded=0;shadow=0;comic=0;labelBackgroundColor=none;strokeWidth=1;fontFamily=Verdana;fontSize=12;html=1;" vertex="1" parent="1">
          <mxGeometry x="950" y="650" width="190" height="50" as="geometry" />
        </mxCell>
        <mxCell id="IsZbNHaNVH5ZTfnj5ISp-19" value="" style="endArrow=open;html=1;rounded=0;dashed=1;dashPattern=8 8;endFill=0;entryX=1;entryY=0.5;entryDx=0;entryDy=0;exitX=0;exitY=0.3;exitDx=0;exitDy=0;" edge="1" parent="1" source="39150e848f15840c-5" target="IsZbNHaNVH5ZTfnj5ISp-3">
          <mxGeometry width="50" height="50" relative="1" as="geometry">
            <mxPoint x="520" y="400" as="sourcePoint" />
            <mxPoint x="570" y="350" as="targetPoint" />
          </mxGeometry>
        </mxCell>
        <mxCell id="IsZbNHaNVH5ZTfnj5ISp-20" value="" style="endArrow=open;html=1;rounded=0;dashed=1;dashPattern=8 8;endFill=0;entryX=1;entryY=0.5;entryDx=0;entryDy=0;exitX=0;exitY=0.3;exitDx=0;exitDy=0;" edge="1" parent="1" source="39150e848f15840c-5" target="IsZbNHaNVH5ZTfnj5ISp-2">
          <mxGeometry width="50" height="50" relative="1" as="geometry">
            <mxPoint x="360" y="375" as="sourcePoint" />
            <mxPoint x="230" y="235" as="targetPoint" />
          </mxGeometry>
        </mxCell>
        <mxCell id="IsZbNHaNVH5ZTfnj5ISp-21" value="" style="endArrow=open;html=1;rounded=0;dashed=1;dashPattern=8 8;endFill=0;entryX=1;entryY=0.5;entryDx=0;entryDy=0;exitX=0;exitY=0.7;exitDx=0;exitDy=0;" edge="1" parent="1" source="39150e848f15840c-5" target="IsZbNHaNVH5ZTfnj5ISp-1">
          <mxGeometry width="50" height="50" relative="1" as="geometry">
            <mxPoint x="380" y="470" as="sourcePoint" />
            <mxPoint x="250" y="430" as="targetPoint" />
          </mxGeometry>
        </mxCell>
        <mxCell id="IsZbNHaNVH5ZTfnj5ISp-22" value="" style="endArrow=open;html=1;rounded=0;dashed=1;dashPattern=8 8;endFill=0;entryX=1;entryY=0.5;entryDx=0;entryDy=0;exitX=0;exitY=0.7;exitDx=0;exitDy=0;" edge="1" parent="1" source="39150e848f15840c-5" target="IsZbNHaNVH5ZTfnj5ISp-5">
          <mxGeometry width="50" height="50" relative="1" as="geometry">
            <mxPoint x="370" y="385" as="sourcePoint" />
            <mxPoint x="240" y="345" as="targetPoint" />
          </mxGeometry>
        </mxCell>
        <mxCell id="IsZbNHaNVH5ZTfnj5ISp-23" value="" style="endArrow=open;html=1;rounded=0;dashed=1;dashPattern=8 8;endFill=0;entryX=0.5;entryY=0;entryDx=0;entryDy=0;" edge="1" parent="1" source="39150e848f15840c-5" target="39150e848f15840c-7">
          <mxGeometry width="50" height="50" relative="1" as="geometry">
            <mxPoint x="380" y="395" as="sourcePoint" />
            <mxPoint x="250" y="355" as="targetPoint" />
          </mxGeometry>
        </mxCell>
        <mxCell id="IsZbNHaNVH5ZTfnj5ISp-24" value="" style="endArrow=open;html=1;rounded=0;dashed=1;dashPattern=8 8;endFill=0;entryX=1;entryY=0.5;entryDx=0;entryDy=0;exitX=0;exitY=0.3;exitDx=0;exitDy=0;" edge="1" parent="1" source="IsZbNHaNVH5ZTfnj5ISp-6" target="39150e848f15840c-5">
          <mxGeometry width="50" height="50" relative="1" as="geometry">
            <mxPoint x="390" y="405" as="sourcePoint" />
            <mxPoint x="260" y="365" as="targetPoint" />
            <Array as="points">
              <mxPoint x="590" y="365" />
              <mxPoint x="590" y="375" />
            </Array>
          </mxGeometry>
        </mxCell>
        <mxCell id="IsZbNHaNVH5ZTfnj5ISp-25" value="" style="endArrow=open;html=1;rounded=0;dashed=1;dashPattern=8 8;endFill=0;entryX=0;entryY=0.3;entryDx=0;entryDy=0;exitX=0.9;exitY=1.06;exitDx=0;exitDy=0;exitPerimeter=0;" edge="1" parent="1" source="IsZbNHaNVH5ZTfnj5ISp-6" target="IsZbNHaNVH5ZTfnj5ISp-14">
          <mxGeometry width="50" height="50" relative="1" as="geometry">
            <mxPoint x="790" y="515" as="sourcePoint" />
            <mxPoint x="660" y="475" as="targetPoint" />
          </mxGeometry>
        </mxCell>
        <mxCell id="IsZbNHaNVH5ZTfnj5ISp-26" value="" style="endArrow=open;html=1;rounded=0;dashed=1;dashPattern=8 8;endFill=0;entryX=0;entryY=0.7;entryDx=0;entryDy=0;exitX=1;exitY=0.75;exitDx=0;exitDy=0;" edge="1" parent="1" source="IsZbNHaNVH5ZTfnj5ISp-6" target="IsZbNHaNVH5ZTfnj5ISp-12">
          <mxGeometry width="50" height="50" relative="1" as="geometry">
            <mxPoint x="830" y="460" as="sourcePoint" />
            <mxPoint x="630" y="440" as="targetPoint" />
          </mxGeometry>
        </mxCell>
        <mxCell id="IsZbNHaNVH5ZTfnj5ISp-27" value="" style="endArrow=open;html=1;rounded=0;dashed=1;dashPattern=8 8;endFill=0;entryX=0;entryY=0.7;entryDx=0;entryDy=0;exitX=1;exitY=0.25;exitDx=0;exitDy=0;" edge="1" parent="1" source="IsZbNHaNVH5ZTfnj5ISp-6" target="IsZbNHaNVH5ZTfnj5ISp-10">
          <mxGeometry width="50" height="50" relative="1" as="geometry">
            <mxPoint x="880" y="250" as="sourcePoint" />
            <mxPoint x="780" y="310" as="targetPoint" />
          </mxGeometry>
        </mxCell>
        <mxCell id="IsZbNHaNVH5ZTfnj5ISp-28" value="" style="endArrow=open;html=1;rounded=0;dashed=1;dashPattern=8 8;endFill=0;entryX=0;entryY=0.7;entryDx=0;entryDy=0;exitX=0.988;exitY=-0.06;exitDx=0;exitDy=0;exitPerimeter=0;" edge="1" parent="1" source="IsZbNHaNVH5ZTfnj5ISp-6" target="IsZbNHaNVH5ZTfnj5ISp-9">
          <mxGeometry width="50" height="50" relative="1" as="geometry">
            <mxPoint x="810" y="200" as="sourcePoint" />
            <mxPoint x="300" y="405" as="targetPoint" />
          </mxGeometry>
        </mxCell>
        <mxCell id="IsZbNHaNVH5ZTfnj5ISp-29" value="" style="endArrow=open;html=1;rounded=0;dashed=1;dashPattern=8 8;endFill=0;entryX=0;entryY=0.7;entryDx=0;entryDy=0;exitX=0.75;exitY=0;exitDx=0;exitDy=0;" edge="1" parent="1" source="IsZbNHaNVH5ZTfnj5ISp-6" target="IsZbNHaNVH5ZTfnj5ISp-7">
          <mxGeometry width="50" height="50" relative="1" as="geometry">
            <mxPoint x="820" y="120" as="sourcePoint" />
            <mxPoint x="310" y="415" as="targetPoint" />
          </mxGeometry>
        </mxCell>
        <mxCell id="IsZbNHaNVH5ZTfnj5ISp-30" value="" style="endArrow=open;html=1;rounded=0;dashed=1;dashPattern=8 8;endFill=0;entryX=0;entryY=0.7;entryDx=0;entryDy=0;exitX=0.635;exitY=0.02;exitDx=0;exitDy=0;exitPerimeter=0;" edge="1" parent="1" source="IsZbNHaNVH5ZTfnj5ISp-6" target="IsZbNHaNVH5ZTfnj5ISp-8">
          <mxGeometry width="50" height="50" relative="1" as="geometry">
            <mxPoint x="820" y="100" as="sourcePoint" />
            <mxPoint x="320" y="425" as="targetPoint" />
          </mxGeometry>
        </mxCell>
        <mxCell id="IsZbNHaNVH5ZTfnj5ISp-31" value="" style="endArrow=open;html=1;rounded=0;dashed=1;dashPattern=8 8;endFill=0;entryX=0;entryY=0.7;entryDx=0;entryDy=0;exitX=1;exitY=0.5;exitDx=0;exitDy=0;" edge="1" parent="1" source="IsZbNHaNVH5ZTfnj5ISp-6" target="IsZbNHaNVH5ZTfnj5ISp-11">
          <mxGeometry width="50" height="50" relative="1" as="geometry">
            <mxPoint x="920" y="300" as="sourcePoint" />
            <mxPoint x="330" y="435" as="targetPoint" />
          </mxGeometry>
        </mxCell>
        <mxCell id="IsZbNHaNVH5ZTfnj5ISp-32" value="" style="endArrow=open;html=1;rounded=0;dashed=1;dashPattern=8 8;endFill=0;entryX=0;entryY=0.3;entryDx=0;entryDy=0;exitX=1.006;exitY=1;exitDx=0;exitDy=0;exitPerimeter=0;" edge="1" parent="1" source="IsZbNHaNVH5ZTfnj5ISp-6" target="IsZbNHaNVH5ZTfnj5ISp-13">
          <mxGeometry width="50" height="50" relative="1" as="geometry">
            <mxPoint x="820" y="450" as="sourcePoint" />
            <mxPoint x="340" y="445" as="targetPoint" />
          </mxGeometry>
        </mxCell>
        <mxCell id="IsZbNHaNVH5ZTfnj5ISp-34" value="" style="endArrow=open;html=1;rounded=0;dashed=1;dashPattern=8 8;endFill=0;entryX=0;entryY=0.3;entryDx=0;entryDy=0;exitX=0.818;exitY=1.06;exitDx=0;exitDy=0;exitPerimeter=0;" edge="1" parent="1" source="IsZbNHaNVH5ZTfnj5ISp-6" target="IsZbNHaNVH5ZTfnj5ISp-15">
          <mxGeometry width="50" height="50" relative="1" as="geometry">
            <mxPoint x="490" y="505" as="sourcePoint" />
            <mxPoint x="360" y="465" as="targetPoint" />
          </mxGeometry>
        </mxCell>
        <mxCell id="IsZbNHaNVH5ZTfnj5ISp-35" value="" style="endArrow=open;html=1;rounded=0;dashed=1;dashPattern=8 8;endFill=0;entryX=0;entryY=0.3;entryDx=0;entryDy=0;exitX=0.688;exitY=1.02;exitDx=0;exitDy=0;exitPerimeter=0;" edge="1" parent="1" source="IsZbNHaNVH5ZTfnj5ISp-6" target="IsZbNHaNVH5ZTfnj5ISp-16">
          <mxGeometry width="50" height="50" relative="1" as="geometry">
            <mxPoint x="500" y="515" as="sourcePoint" />
            <mxPoint x="370" y="475" as="targetPoint" />
          </mxGeometry>
        </mxCell>
        <mxCell id="IsZbNHaNVH5ZTfnj5ISp-37" value="" style="endArrow=open;html=1;rounded=0;dashed=1;dashPattern=8 8;endFill=0;entryX=0;entryY=0.3;entryDx=0;entryDy=0;exitX=0.547;exitY=1;exitDx=0;exitDy=0;exitPerimeter=0;" edge="1" parent="1" source="IsZbNHaNVH5ZTfnj5ISp-6" target="IsZbNHaNVH5ZTfnj5ISp-17">
          <mxGeometry width="50" height="50" relative="1" as="geometry">
            <mxPoint x="520" y="535" as="sourcePoint" />
            <mxPoint x="390" y="495" as="targetPoint" />
          </mxGeometry>
        </mxCell>
      </root>
    </mxGraphModel>
  </diagram>
</mxfile>
